<mxfile host="app.diagrams.net" agent="Mozilla/5.0 (Windows NT 10.0; Win64; x64; rv:133.0) Gecko/20100101 Firefox/133.0" version="24.8.6">
  <diagram name="Page-1" id="walBb9xH7DDlDxewu9Oh">
    <mxGraphModel dx="875" dy="545" grid="1" gridSize="10" guides="1" tooltips="1" connect="1" arrows="1" fold="1" page="1" pageScale="1" pageWidth="850" pageHeight="1100" math="0" shadow="0">
      <root>
        <mxCell id="0" />
        <mxCell id="1" parent="0" />
        <mxCell id="RXYPeUOh9erzcLhgyGb0-31" value="" style="rounded=0;whiteSpace=wrap;html=1;sketch=1;hachureGap=4;jiggle=2;curveFitting=1;fontFamily=Architects Daughter;fontSource=https%3A%2F%2Ffonts.googleapis.com%2Fcss%3Ffamily%3DArchitects%2BDaughter;glass=0;fillColor=none;strokeColor=#009900;" vertex="1" parent="1">
          <mxGeometry x="60" y="180" width="710" height="220" as="geometry" />
        </mxCell>
        <mxCell id="RXYPeUOh9erzcLhgyGb0-1" value="&lt;div&gt;&lt;font color=&quot;#9673a6&quot;&gt;Bob&lt;/font&gt;&lt;/div&gt;" style="shape=umlActor;verticalLabelPosition=bottom;verticalAlign=top;html=1;outlineConnect=0;sketch=1;curveFitting=1;jiggle=2;fillColor=#e1d5e7;strokeColor=#9673a6;" vertex="1" parent="1">
          <mxGeometry x="800" y="40" width="30" height="60" as="geometry" />
        </mxCell>
        <mxCell id="RXYPeUOh9erzcLhgyGb0-2" value="&lt;font color=&quot;#9673a6&quot;&gt;Alice&lt;/font&gt;" style="shape=umlActor;verticalLabelPosition=bottom;verticalAlign=top;html=1;outlineConnect=0;sketch=1;curveFitting=1;jiggle=2;fillColor=#e1d5e7;strokeColor=#9673a6;" vertex="1" parent="1">
          <mxGeometry y="40" width="30" height="60" as="geometry" />
        </mxCell>
        <mxCell id="RXYPeUOh9erzcLhgyGb0-5" style="edgeStyle=orthogonalEdgeStyle;rounded=0;orthogonalLoop=1;jettySize=auto;html=1;startArrow=classic;startFill=1;sketch=1;curveFitting=1;jiggle=2;fillColor=#f8cecc;strokeColor=#b85450;labelBackgroundColor=none;" edge="1" parent="1">
          <mxGeometry relative="1" as="geometry">
            <mxPoint x="60" y="70" as="sourcePoint" />
            <mxPoint x="770" y="70" as="targetPoint" />
          </mxGeometry>
        </mxCell>
        <mxCell id="RXYPeUOh9erzcLhgyGb0-6" value="&lt;font color=&quot;#b85450&quot;&gt;&amp;nbsp;Exchange RSA public keys and hashed code word&amp;nbsp; &lt;/font&gt;" style="edgeLabel;html=1;align=center;verticalAlign=middle;resizable=0;points=[];sketch=1;hachureGap=4;jiggle=2;curveFitting=1;fontFamily=Architects Daughter;fontSource=https%3A%2F%2Ffonts.googleapis.com%2Fcss%3Ffamily%3DArchitects%2BDaughter;labelBackgroundColor=none;" vertex="1" connectable="0" parent="RXYPeUOh9erzcLhgyGb0-5">
          <mxGeometry x="-0.047" y="1" relative="1" as="geometry">
            <mxPoint x="25" y="-8" as="offset" />
          </mxGeometry>
        </mxCell>
        <mxCell id="RXYPeUOh9erzcLhgyGb0-8" value="&lt;font color=&quot;#6c8ebf&quot;&gt;RSA Encrypted&lt;/font&gt;" style="text;html=1;align=left;verticalAlign=middle;whiteSpace=wrap;rounded=0;fontFamily=Architects Daughter;fontSource=https%3A%2F%2Ffonts.googleapis.com%2Fcss%3Ffamily%3DArchitects%2BDaughter;" vertex="1" parent="1">
          <mxGeometry x="60" y="88" width="710" height="30" as="geometry" />
        </mxCell>
        <mxCell id="RXYPeUOh9erzcLhgyGb0-18" value="" style="endArrow=none;html=1;rounded=0;sketch=1;hachureGap=4;jiggle=2;curveFitting=1;fontFamily=Architects Daughter;fontSource=https%3A%2F%2Ffonts.googleapis.com%2Fcss%3Ffamily%3DArchitects%2BDaughter;strokeColor=#009900;" edge="1" parent="1">
          <mxGeometry width="50" height="50" relative="1" as="geometry">
            <mxPoint x="536" y="370" as="sourcePoint" />
            <mxPoint x="536" y="203" as="targetPoint" />
          </mxGeometry>
        </mxCell>
        <mxCell id="RXYPeUOh9erzcLhgyGb0-20" value="&lt;p style=&quot;line-height: 70%;&quot;&gt;&lt;/p&gt;&lt;h1 style=&quot;margin-top: 0px; line-height: 0%;&quot;&gt;&lt;font color=&quot;#009900&quot;&gt;&lt;br&gt;&lt;/font&gt;&lt;/h1&gt;&lt;h1 style=&quot;margin-top: 0px; line-height: 0%;&quot;&gt;&lt;font color=&quot;#009900&quot; style=&quot;font-size: 17px;&quot;&gt;Bob decrypts message&lt;/font&gt;&lt;font color=&quot;#009900&quot;&gt;&lt;br&gt;&lt;/font&gt;&lt;/h1&gt;&lt;font color=&quot;#009900&quot;&gt;Bob now decrypts the message with there AES keys and filters out the random data with there delimiter&lt;br&gt;&lt;/font&gt;&lt;p&gt;&lt;/p&gt;" style="text;html=1;whiteSpace=wrap;overflow=hidden;rounded=0;fontFamily=Architects Daughter;fontSource=https%3A%2F%2Ffonts.googleapis.com%2Fcss%3Ffamily%3DArchitects%2BDaughter;" vertex="1" parent="1">
          <mxGeometry x="550" y="173" width="210" height="110" as="geometry" />
        </mxCell>
        <mxCell id="RXYPeUOh9erzcLhgyGb0-21" value="" style="endArrow=none;html=1;rounded=0;sketch=1;hachureGap=4;jiggle=2;curveFitting=1;fontFamily=Architects Daughter;fontSource=https%3A%2F%2Ffonts.googleapis.com%2Fcss%3Ffamily%3DArchitects%2BDaughter;strokeColor=#009900;" edge="1" parent="1">
          <mxGeometry width="50" height="50" relative="1" as="geometry">
            <mxPoint x="341" y="373" as="sourcePoint" />
            <mxPoint x="340.71" y="199" as="targetPoint" />
          </mxGeometry>
        </mxCell>
        <mxCell id="RXYPeUOh9erzcLhgyGb0-23" value="&lt;font color=&quot;#009900&quot;&gt;&quot;Super Secret Message&quot;&lt;/font&gt;" style="text;html=1;align=center;verticalAlign=middle;whiteSpace=wrap;rounded=0;fontFamily=Architects Daughter;fontSource=https%3A%2F%2Ffonts.googleapis.com%2Fcss%3Ffamily%3DArchitects%2BDaughter;" vertex="1" parent="1">
          <mxGeometry x="560" y="342" width="190" height="30" as="geometry" />
        </mxCell>
        <mxCell id="RXYPeUOh9erzcLhgyGb0-24" value="" style="endArrow=none;dashed=1;html=1;rounded=0;sketch=1;hachureGap=4;jiggle=2;curveFitting=1;fontFamily=Architects Daughter;fontSource=https%3A%2F%2Ffonts.googleapis.com%2Fcss%3Ffamily%3DArchitects%2BDaughter;exitX=0.018;exitY=1.021;exitDx=0;exitDy=0;exitPerimeter=0;entryX=0.98;entryY=1.008;entryDx=0;entryDy=0;entryPerimeter=0;strokeColor=#7CB346;" edge="1" parent="1">
          <mxGeometry width="50" height="50" relative="1" as="geometry">
            <mxPoint x="553.78" y="321.30999999999995" as="sourcePoint" />
            <mxPoint x="755.8" y="319.88" as="targetPoint" />
          </mxGeometry>
        </mxCell>
        <mxCell id="RXYPeUOh9erzcLhgyGb0-26" value="&lt;p style=&quot;line-height: 70%;&quot;&gt;&lt;/p&gt;&lt;h1 style=&quot;margin-top: 0px; line-height: 0%;&quot;&gt;&lt;font color=&quot;#009900&quot;&gt;&lt;br&gt;&lt;/font&gt;&lt;/h1&gt;&lt;h1 style=&quot;margin-top: 0px; line-height: 0%;&quot;&gt;&lt;font color=&quot;#009900&quot; style=&quot;font-size: 17px;&quot;&gt;Alice sends Bob a message&lt;/font&gt;&lt;font color=&quot;#009900&quot;&gt;&lt;br&gt;&lt;/font&gt;&lt;/h1&gt;&lt;font color=&quot;#009900&quot;&gt;Alice pads their message with random data to make the payload 10MB separating the random data and message with the delimiter Bob sent then encrypts the payload with Bobs AES keys&lt;/font&gt;&lt;p&gt;&lt;/p&gt;" style="text;html=1;whiteSpace=wrap;overflow=hidden;rounded=0;fontFamily=Architects Daughter;fontSource=https%3A%2F%2Ffonts.googleapis.com%2Fcss%3Ffamily%3DArchitects%2BDaughter;" vertex="1" parent="1">
          <mxGeometry x="88" y="179" width="240" height="130" as="geometry" />
        </mxCell>
        <mxCell id="RXYPeUOh9erzcLhgyGb0-29" value="&lt;font color=&quot;#009900&quot;&gt;&quot;Super Secret Message&quot;&lt;/font&gt;" style="text;html=1;align=center;verticalAlign=middle;whiteSpace=wrap;rounded=0;fontFamily=Architects Daughter;fontSource=https%3A%2F%2Ffonts.googleapis.com%2Fcss%3Ffamily%3DArchitects%2BDaughter;" vertex="1" parent="1">
          <mxGeometry x="96.22000000000003" y="343" width="190" height="30" as="geometry" />
        </mxCell>
        <mxCell id="RXYPeUOh9erzcLhgyGb0-30" value="" style="endArrow=none;dashed=1;html=1;rounded=0;sketch=1;hachureGap=4;jiggle=2;curveFitting=1;fontFamily=Architects Daughter;fontSource=https%3A%2F%2Ffonts.googleapis.com%2Fcss%3Ffamily%3DArchitects%2BDaughter;exitX=0.018;exitY=1.021;exitDx=0;exitDy=0;exitPerimeter=0;strokeColor=#7CB346;" edge="1" parent="1">
          <mxGeometry width="50" height="50" relative="1" as="geometry">
            <mxPoint x="90" y="324.42999999999995" as="sourcePoint" />
            <mxPoint x="320" y="323" as="targetPoint" />
          </mxGeometry>
        </mxCell>
        <mxCell id="RXYPeUOh9erzcLhgyGb0-32" value="&lt;font color=&quot;#009900&quot;&gt;Handshake complete, now everything is encrypted with AES &lt;/font&gt;" style="text;html=1;align=left;verticalAlign=middle;whiteSpace=wrap;rounded=0;fontFamily=Architects Daughter;fontSource=https%3A%2F%2Ffonts.googleapis.com%2Fcss%3Ffamily%3DArchitects%2BDaughter;" vertex="1" parent="1">
          <mxGeometry x="60" y="149" width="710" height="30" as="geometry" />
        </mxCell>
        <mxCell id="RXYPeUOh9erzcLhgyGb0-36" value="&lt;div&gt;&lt;font color=&quot;#009900&quot;&gt;Encrypted payload send over network&lt;/font&gt;&lt;/div&gt;" style="text;html=1;align=center;verticalAlign=middle;whiteSpace=wrap;rounded=0;fontFamily=Architects Daughter;fontSource=https%3A%2F%2Ffonts.googleapis.com%2Fcss%3Ffamily%3DArchitects%2BDaughter;" vertex="1" parent="1">
          <mxGeometry x="355" y="276" width="170" height="30" as="geometry" />
        </mxCell>
        <mxCell id="RXYPeUOh9erzcLhgyGb0-39" value=" Exchange AES Key and IV + Delimiter  " style="endArrow=classic;startArrow=classic;rounded=0;sketch=1;hachureGap=4;jiggle=2;curveFitting=1;fontFamily=Architects Daughter;fontSource=https%3A%2F%2Ffonts.googleapis.com%2Fcss%3Ffamily%3DArchitects%2BDaughter;strokeColor=#6C8EBF;align=center;fontColor=#6C8EBF;labelBackgroundColor=none;" edge="1" parent="1">
          <mxGeometry x="0.0141" y="10" width="50" height="50" relative="1" as="geometry">
            <mxPoint x="60" y="120" as="sourcePoint" />
            <mxPoint x="770" y="120" as="targetPoint" />
            <Array as="points" />
            <mxPoint as="offset" />
          </mxGeometry>
        </mxCell>
      </root>
    </mxGraphModel>
  </diagram>
</mxfile>
